<svg width="112" height="28" viewBox="0 0 112 28" fill="none" xmlns="http://www.w3.org/2000/svg">
<g clip-path="url(#clip0_2422_76779)">
<path d="M86.7892 13.0436L73.8817 0.139744C73.8152 0.0731318 73.7303 0.0277285 73.638 0.00925924C73.5456 -0.00921006 73.4499 8.17117e-05 73.3628 0.0359628C73.2757 0.0718439 73.2012 0.132708 73.1486 0.210879C73.0961 0.28905 73.0679 0.381028 73.0675 0.475214V11.3263L69.158 7.42036C69.0913 7.35364 69.0063 7.3082 68.9137 7.28979C68.8212 7.27138 68.7253 7.28082 68.6381 7.31693C68.551 7.35303 68.4765 7.41418 68.4241 7.49263C68.3717 7.57107 68.3437 7.6633 68.3438 7.75764V18.9624C68.343 19.3133 68.4116 19.6609 68.5457 19.9852C68.6799 20.3095 68.8768 20.604 69.1253 20.8519L74.2118 25.9293C74.7129 26.4279 75.3908 26.7081 76.0977 26.709H79.8205C80.5269 26.7087 81.2045 26.4283 81.7045 25.9293L86.791 20.8519C87.0386 20.6046 87.2349 20.3109 87.3687 19.9876C87.5025 19.6643 87.5712 19.3177 87.5707 18.9678V14.9295C87.5711 14.5791 87.5022 14.2322 87.3681 13.9086C87.234 13.5849 87.0372 13.291 86.7892 13.0436Z" fill="#FA005A"/>
<path d="M82.8528 17.772C82.8523 17.9835 82.7682 18.1862 82.6189 18.336L78.5207 22.4487C78.4465 22.5235 78.3582 22.5829 78.261 22.6235C78.1637 22.664 78.0594 22.6849 77.954 22.6849C77.8487 22.6849 77.7443 22.664 77.6471 22.6235C77.5498 22.5829 77.4615 22.5235 77.3874 22.4487L73.2982 18.3306C73.1496 18.1824 73.0649 17.9819 73.0625 17.772V16.2017C73.0627 16.0965 73.0836 15.9924 73.124 15.8953C73.1645 15.7982 73.2237 15.7101 73.2982 15.6359L74.7707 14.1635C74.9209 14.0138 75.1244 13.9297 75.3364 13.9297C75.5485 13.9297 75.752 14.0138 75.9022 14.1635L77.9604 16.2234L80.0149 14.1635C80.1651 14.0138 80.3686 13.9297 80.5807 13.9297C80.7928 13.9297 80.9962 14.0138 81.1464 14.1635L82.6171 15.6359C82.6916 15.7101 82.7508 15.7982 82.7913 15.8953C82.8317 15.9924 82.8526 16.0965 82.8528 16.2017V17.772Z" fill="#FFC500"/>
<path d="M106.296 10.2031C105.243 10.2034 104.22 10.56 103.395 11.215L102.737 11.759C102.637 11.8365 102.514 11.8785 102.388 11.8785C102.261 11.8785 102.139 11.8365 102.039 11.759L101.379 11.215C100.553 10.56 99.5308 10.2034 98.4773 10.2031H98.3558C96.7691 10.2031 95.3764 11.0699 94.6021 12.5605C94.5868 12.591 94.5616 12.6154 94.5307 12.6299C94.4997 12.6443 94.4648 12.648 94.4316 12.6403C94.3983 12.6325 94.3686 12.6138 94.3473 12.5872C94.3259 12.5606 94.3141 12.5275 94.3138 12.4934V10.8233C94.3138 10.6901 94.2609 10.5623 94.1667 10.4681C94.0725 10.3739 93.9447 10.321 93.8115 10.321H90.3244C90.1906 10.3215 90.0623 10.375 89.9679 10.4698C89.8734 10.5646 89.8203 10.6931 89.8203 10.8269V24.5903C89.8203 24.7254 89.874 24.855 89.9696 24.9506C90.0651 25.0461 90.1947 25.0998 90.3299 25.0998H93.8043C93.9394 25.0998 94.069 25.0461 94.1646 24.9506C94.2601 24.855 94.3138 24.7254 94.3138 24.5903V16.3794C94.3136 16.1536 94.3579 15.9299 94.4442 15.7213C94.5305 15.5126 94.6571 15.323 94.8168 15.1633C94.9765 15.0036 95.1661 14.877 95.3747 14.7907C95.5834 14.7044 95.807 14.6601 96.0329 14.6603H96.9123C97.1382 14.6601 97.362 14.7044 97.5708 14.7907C97.7795 14.877 97.9692 15.0036 98.1291 15.1632C98.2889 15.3229 98.4157 15.5124 98.5022 15.7211C98.5887 15.9298 98.6332 16.1535 98.6332 16.3794L98.6441 24.5921C98.6441 24.6589 98.6573 24.7251 98.6829 24.7868C98.7085 24.8485 98.7461 24.9046 98.7934 24.9518C98.8408 24.9989 98.897 25.0363 98.9588 25.0617C99.0206 25.0871 99.0868 25.1001 99.1537 25.0998H102.628C102.763 25.0998 102.893 25.0461 102.988 24.9506C103.084 24.855 103.138 24.7254 103.138 24.5903V16.3794C103.138 15.9235 103.319 15.4862 103.641 15.1639C103.963 14.8415 104.401 14.6603 104.857 14.6603H105.738C105.964 14.6601 106.187 14.7044 106.396 14.7907C106.605 14.877 106.794 15.0036 106.954 15.1633C107.114 15.323 107.24 15.5126 107.327 15.7213C107.413 15.9299 107.457 16.1536 107.457 16.3794L107.47 24.5921C107.47 24.7267 107.523 24.8559 107.618 24.9511C107.714 25.0463 107.843 25.0998 107.977 25.0998H111.454C111.52 25.0998 111.587 25.0866 111.648 25.061C111.71 25.0354 111.766 24.9978 111.813 24.9505C111.86 24.9031 111.898 24.8469 111.923 24.7851C111.949 24.7233 111.962 24.6571 111.961 24.5903V15.9533C111.971 15.2027 111.832 14.4576 111.551 13.7612C111.271 13.0648 110.856 12.4309 110.329 11.8961C109.802 11.3614 109.174 10.9364 108.482 10.6458C107.79 10.3552 107.047 10.2047 106.296 10.2031Z" fill="#F9EDD8"/>
<path d="M65.2826 4.98389L62.0548 1.75612C61.9857 1.68629 61.8973 1.63862 61.801 1.61917C61.7047 1.59972 61.6047 1.60938 61.5139 1.64691C61.4231 1.68444 61.3455 1.74815 61.291 1.82992C61.2365 1.9117 61.2076 2.00784 61.208 2.1061V10.8972C61.2079 10.9499 61.1934 11.0016 61.1662 11.0467C61.1389 11.0918 61.0999 11.1287 61.0533 11.1533C61.0067 11.1779 60.9543 11.1893 60.9016 11.1864C60.849 11.1835 60.7982 11.1662 60.7546 11.1366C59.9533 10.5927 59.0029 10.3107 58.0346 10.3297H56.0054C55.2528 10.3294 54.5075 10.4775 53.812 10.7653C53.1166 11.0532 52.4847 11.4752 51.9524 12.0074C51.4201 12.5395 50.9979 13.1713 50.7098 13.8666C50.4217 14.5619 50.2734 15.3072 50.2734 16.0599V17.788V19.3928C50.2734 20.1455 50.4217 20.8909 50.7098 21.5863C50.9978 22.2818 51.42 22.9137 51.9523 23.4459C52.4846 23.9782 53.1165 24.4004 53.8119 24.6885C54.5073 24.9766 55.2527 25.1248 56.0054 25.1248H57.1334C58.72 25.1248 60.1127 24.258 60.887 22.7675C60.9024 22.737 60.9275 22.7125 60.9585 22.6981C60.9894 22.6836 61.0243 22.6799 61.0575 22.6877C61.0908 22.6954 61.1205 22.7141 61.1418 22.7407C61.1632 22.7674 61.175 22.8004 61.1753 22.8345V24.6189C61.1753 24.6849 61.1883 24.7502 61.2136 24.8111C61.2388 24.8721 61.2758 24.9274 61.3224 24.9741C61.3691 25.0207 61.4245 25.0577 61.4854 25.083C61.5463 25.1082 61.6117 25.1212 61.6776 25.1212H65.1647C65.2983 25.1207 65.4262 25.0674 65.5206 24.973C65.6151 24.8786 65.6683 24.7506 65.6688 24.6171V5.91414C65.6683 5.56516 65.5294 5.23063 65.2826 4.98389ZM54.7488 19.1281V18.497V16.321C54.7493 15.8652 54.9305 15.4282 55.2528 15.106C55.5751 14.7837 56.0121 14.6024 56.4679 14.6019H59.3565C59.8125 14.6019 60.2497 14.783 60.5721 15.1054C60.8945 15.4278 61.0756 15.8651 61.0756 16.321V17.9675V19.1281C61.0758 19.354 61.0315 19.5777 60.9452 19.7865C60.859 19.9952 60.7324 20.185 60.5727 20.3448C60.4131 20.5046 60.2235 20.6314 60.0148 20.7179C59.8061 20.8044 59.5824 20.8489 59.3565 20.8489H56.4679C56.0121 20.8484 55.5751 20.6672 55.2528 20.3449C54.9305 20.0226 54.7493 19.5856 54.7488 19.1299V19.1281Z" fill="#F9EDD8"/>
<path d="M29.452 10.3336H25.9667C25.8335 10.3336 25.7057 10.3865 25.6115 10.4807C25.5173 10.5749 25.4644 10.7026 25.4644 10.8359V12.6184C25.4641 12.6525 25.4523 12.6856 25.4309 12.7122C25.4095 12.7388 25.3798 12.7575 25.3466 12.7653C25.3133 12.773 25.2785 12.7693 25.2475 12.7549C25.2166 12.7404 25.1914 12.716 25.1761 12.6855C24.4018 11.1985 23 10.3281 21.4224 10.3281H20.2927C18.773 10.3281 17.3155 10.9318 16.2408 12.0065C15.1662 13.0811 14.5625 14.5386 14.5625 16.0583V19.3913C14.5623 20.1439 14.7103 20.8892 14.9982 21.5847C15.286 22.2801 15.7081 22.912 16.2402 23.4443C16.7723 23.9766 17.4041 24.3988 18.0994 24.6869C18.7948 24.975 19.54 25.1233 20.2927 25.1233H21.4224C23.0073 25.1233 24.4018 24.2565 25.1761 22.7659C25.1914 22.7354 25.2166 22.711 25.2475 22.6965C25.2785 22.6821 25.3133 22.6784 25.3466 22.6861C25.3798 22.6939 25.4095 22.7126 25.4309 22.7392C25.4523 22.7658 25.4641 22.7989 25.4644 22.833V24.6174C25.4644 24.7506 25.5173 24.8783 25.6115 24.9725C25.7057 25.0667 25.8335 25.1197 25.9667 25.1197H29.452C29.5856 25.1197 29.7139 25.0665 29.8084 24.972C29.903 24.8775 29.9561 24.7492 29.9561 24.6155V10.8341C29.9558 10.7681 29.9426 10.7028 29.9171 10.642C29.8917 10.5811 29.8545 10.5259 29.8077 10.4794C29.7609 10.4329 29.7053 10.3961 29.6443 10.3711C29.5833 10.3461 29.5179 10.3333 29.452 10.3336ZM25.3647 19.1338C25.3647 19.3598 25.3201 19.5835 25.2337 19.7923C25.1472 20.0011 25.0204 20.1908 24.8606 20.3506C24.7008 20.5104 24.5111 20.6372 24.3023 20.7237C24.0935 20.8101 23.8698 20.8546 23.6438 20.8546H20.7569C20.3005 20.8546 19.8628 20.6733 19.5401 20.3506C19.2174 20.0279 19.036 19.5902 19.036 19.1338V16.3176C19.0365 15.8615 19.218 15.4243 19.5407 15.102C19.8634 14.7796 20.3008 14.5986 20.7569 14.5986H23.6438C24.0999 14.5986 24.5373 14.7796 24.86 15.102C25.1827 15.4243 25.3642 15.8615 25.3647 16.3176V19.1338Z" fill="#F9EDD8"/>
<path d="M42.0283 10.3359H41.7055C40.1207 10.3359 38.7262 11.2009 37.9519 12.6933C37.9365 12.7238 37.9113 12.7482 37.8804 12.7627C37.8495 12.7772 37.8146 12.7808 37.7813 12.7731C37.7481 12.7653 37.7184 12.7467 37.697 12.72C37.6757 12.6934 37.6639 12.6603 37.6636 12.6262V10.831C37.6617 10.699 37.6079 10.5731 37.5139 10.4805C37.4199 10.3879 37.2932 10.3359 37.1613 10.3359H33.676C33.6097 10.3357 33.5441 10.3486 33.4828 10.3738C33.4215 10.3991 33.3659 10.4362 33.319 10.4831C33.2721 10.5299 33.235 10.5856 33.2098 10.6469C33.1845 10.7081 33.1716 10.7738 33.1719 10.8401V24.6052C33.1719 24.7399 33.2254 24.869 33.3206 24.9642C33.4158 25.0595 33.545 25.113 33.6796 25.113H37.1558C37.2225 25.113 37.2885 25.0998 37.3501 25.0743C37.4117 25.0488 37.4677 25.0114 37.5148 24.9642C37.562 24.9171 37.5994 24.8611 37.6249 24.7995C37.6504 24.7379 37.6636 24.6719 37.6636 24.6052L37.6762 16.5013C37.6762 16.0454 37.8574 15.6082 38.1797 15.2858C38.5021 14.9634 38.9394 14.7823 39.3953 14.7823H41.5351C41.9908 14.7828 42.4278 14.964 42.7501 15.2863C43.0724 15.6086 43.2536 16.0456 43.2541 16.5013L43.265 24.5962C43.2655 24.731 43.3194 24.8601 43.4149 24.9553C43.5104 25.0505 43.6397 25.1039 43.7746 25.1039H47.2489C47.3158 25.1041 47.382 25.0912 47.4438 25.0658C47.5056 25.0404 47.5618 25.003 47.6091 24.9558C47.6565 24.9087 47.694 24.8526 47.7197 24.7909C47.7453 24.7292 47.7585 24.663 47.7585 24.5962V16.0589C47.7566 14.5404 47.152 13.0848 46.0776 12.0117C45.0032 10.9387 43.5468 10.3359 42.0283 10.3359Z" fill="#F9EDD8"/>
<path d="M2.94307 7.3125C2.16236 7.31298 1.41378 7.62346 0.861896 8.17568C0.310015 8.7279 -1.4801e-07 9.47667 0 10.2574L0 23.5221C4.83229e-05 23.992 0.186574 24.4426 0.518619 24.7751L3.585 27.8397C3.6593 27.9138 3.75392 27.9643 3.85689 27.9848C3.95987 28.0052 4.0666 27.9947 4.1636 27.9545C4.2606 27.9144 4.34354 27.8464 4.40193 27.7591C4.46032 27.6719 4.49155 27.5693 4.49168 27.4643V20.6697C4.49168 20.5384 4.54383 20.4125 4.63667 20.3196C4.72951 20.2268 4.85543 20.1746 4.98672 20.1746H10.1548C10.295 20.1746 10.4316 20.13 10.5447 20.0472C10.6578 19.9644 10.7416 19.8477 10.784 19.714L11.7578 16.6313C11.7843 16.548 11.7908 16.4595 11.7767 16.3732C11.7627 16.2869 11.7285 16.2051 11.6769 16.1344C11.6253 16.0638 11.5578 16.0063 11.4799 15.9666C11.4019 15.9269 11.3158 15.9061 11.2283 15.906H4.98672C4.92165 15.9062 4.85716 15.8936 4.79699 15.8688C4.73682 15.844 4.68216 15.8075 4.63614 15.7615C4.59012 15.7155 4.55367 15.6608 4.52887 15.6007C4.50408 15.5405 4.49144 15.476 4.49168 15.4109V12.0472C4.49168 11.9822 4.5045 11.918 4.5294 11.858C4.5543 11.798 4.59079 11.7436 4.63678 11.6978C4.68278 11.6519 4.73736 11.6156 4.79741 11.591C4.85747 11.5663 4.9218 11.5537 4.98672 11.5539H12.9183C13.0581 11.554 13.1942 11.5095 13.307 11.427C13.4198 11.3446 13.5034 11.2283 13.5458 11.0952L14.5268 8.03784C14.5533 7.95449 14.5598 7.86606 14.5457 7.77973C14.5316 7.69341 14.4974 7.61161 14.4459 7.54096C14.3943 7.47032 14.3268 7.41282 14.2489 7.37313C14.1709 7.33343 14.0847 7.31266 13.9973 7.3125H2.94307Z" fill="#F9EDD8"/>
</g>
<defs>
<clipPath id="clip0_2422_76779">
<rect width="111.958" height="28" fill="white"/>
</clipPath>
</defs>
</svg>
