<svg width="22" height="30" viewBox="0 0 22 30" fill="none" xmlns="http://www.w3.org/2000/svg">
<path d="M21.1057 14.6508L6.3367 0.156962C6.26051 0.0821429 6.16346 0.0311452 6.05778 0.0104001C5.9521 -0.0103449 5.84253 9.178e-05 5.74289 0.040394C5.64324 0.0806963 5.55798 0.149059 5.49787 0.236863C5.43775 0.324666 5.40546 0.427977 5.40508 0.533768V12.7219L0.931629 8.33467C0.855311 8.25973 0.758067 8.20869 0.652196 8.18801C0.546324 8.16733 0.436582 8.17794 0.336854 8.2185C0.237125 8.25905 0.15189 8.32773 0.0919302 8.41584C0.0319702 8.50396 -1.74629e-05 8.60755 7.92122e-06 8.71351V21.2988C-0.000908112 21.693 0.0776341 22.0835 0.231115 22.4477C0.384595 22.812 0.609981 23.1428 0.894282 23.4212L6.71433 29.1242C7.2877 29.6842 8.06336 29.999 8.87221 30H13.1319C13.9403 29.9996 14.7155 29.6847 15.2877 29.1242L21.1078 23.4212C21.3911 23.1434 21.6157 22.8135 21.7688 22.4504C21.9219 22.0872 22.0005 21.698 22 21.3049V16.769C22.0004 16.3755 21.9216 15.9858 21.7681 15.6223C21.6146 15.2588 21.3895 14.9286 21.1057 14.6508V14.6508Z" fill="#FA005A"/>
<path d="M17 19.3887C16.9994 19.6302 16.8963 19.8617 16.7133 20.0328L11.6901 24.7302C11.5992 24.8157 11.491 24.8836 11.3718 24.9299C11.2526 24.9762 11.1247 25 10.9956 25C10.8664 25 10.7385 24.9762 10.6193 24.9299C10.5001 24.8836 10.3919 24.8157 10.301 24.7302L5.28895 20.0266C5.10672 19.8574 5.00297 19.6283 5 19.3887V17.595C5.00019 17.4749 5.02582 17.356 5.0754 17.2451C5.12498 17.1342 5.19755 17.0335 5.28895 16.9488L7.09372 15.267C7.27786 15.096 7.52722 15 7.78718 15C8.04714 15 8.29651 15.096 8.48064 15.267L11.0033 17.6199L13.5216 15.267C13.7057 15.096 13.9551 15 14.215 15C14.475 15 14.7244 15.096 14.9085 15.267L16.7111 16.9488C16.8025 17.0335 16.875 17.1342 16.9246 17.2451C16.9742 17.356 16.9998 17.4749 17 17.595V19.3887Z" fill="#FFC500"/>
</svg>
