<svg width="112" height="28" viewBox="0 0 112 28" fill="none" xmlns="http://www.w3.org/2000/svg">
<g clip-path="url(#clip0_2432_75506)">
<path d="M86.8195 13.0436L73.9072 0.139744C73.8406 0.0731318 73.7558 0.0277285 73.6634 0.00925924C73.571 -0.00921006 73.4752 8.17117e-05 73.3881 0.0359628C73.301 0.0718439 73.2264 0.132708 73.1739 0.210879C73.1213 0.28905 73.0931 0.381028 73.0927 0.475214V11.3263L69.1817 7.42036C69.115 7.35364 69.03 7.3082 68.9374 7.28979C68.8448 7.27138 68.7489 7.28082 68.6617 7.31693C68.5745 7.35303 68.5 7.41418 68.4476 7.49263C68.3951 7.57107 68.3672 7.6633 68.3672 7.75764V18.9624C68.3664 19.3133 68.4351 19.6609 68.5692 19.9852C68.7034 20.3095 68.9005 20.604 69.149 20.8519L74.2374 25.9293C74.7387 26.4279 75.4168 26.7081 76.124 26.709H79.8482C80.5549 26.7087 81.2327 26.4283 81.733 25.9293L86.8213 20.8519C87.069 20.6046 87.2654 20.3109 87.3992 19.9876C87.5331 19.6643 87.6018 19.3177 87.6014 18.9678V14.9295C87.6017 14.5791 87.5328 14.2322 87.3986 13.9086C87.2644 13.5849 87.0676 13.291 86.8195 13.0436Z" fill="#FA005A"/>
<path d="M82.8799 17.772C82.8794 17.9835 82.7953 18.1862 82.6459 18.336L78.5462 22.4487C78.472 22.5235 78.3837 22.5829 78.2864 22.6235C78.1891 22.664 78.0847 22.6849 77.9793 22.6849C77.8739 22.6849 77.7695 22.664 77.6722 22.6235C77.5749 22.5829 77.4866 22.5235 77.4124 22.4487L73.3218 18.3306C73.173 18.1824 73.0884 17.9819 73.0859 17.772V16.2017C73.0861 16.0965 73.107 15.9924 73.1475 15.8953C73.1879 15.7982 73.2472 15.7101 73.3218 15.6359L74.7948 14.1635C74.945 14.0138 75.1486 13.9297 75.3607 13.9297C75.5729 13.9297 75.7764 14.0138 75.9267 14.1635L77.9856 16.2234L80.0409 14.1635C80.1912 14.0138 80.3947 13.9297 80.6069 13.9297C80.8191 13.9297 81.0226 14.0138 81.1729 14.1635L82.6441 15.6359C82.7187 15.7101 82.7779 15.7982 82.8183 15.8953C82.8588 15.9924 82.8797 16.0965 82.8799 16.2017V17.772Z" fill="#FFC500"/>
<path d="M106.334 10.2031C105.28 10.2034 104.257 10.56 103.431 11.215L102.773 11.759C102.673 11.8365 102.55 11.8785 102.424 11.8785C102.297 11.8785 102.174 11.8365 102.074 11.759L101.414 11.215C100.589 10.56 99.5657 10.2034 98.5117 10.2031H98.3902C96.8029 10.2031 95.4097 11.0699 94.6352 12.5605C94.6198 12.591 94.5946 12.6154 94.5637 12.6299C94.5327 12.6443 94.4978 12.648 94.4646 12.6403C94.4313 12.6325 94.4016 12.6138 94.3802 12.5872C94.3589 12.5606 94.3471 12.5275 94.3467 12.4934V10.8233C94.3467 10.6901 94.2938 10.5623 94.1996 10.4681C94.1053 10.3739 93.9775 10.321 93.8442 10.321H90.3559C90.2219 10.3215 90.0937 10.375 89.9992 10.4698C89.9046 10.5646 89.8516 10.6931 89.8516 10.8269V24.5903C89.8516 24.7254 89.9053 24.855 90.0009 24.9506C90.0965 25.0461 90.2261 25.0998 90.3613 25.0998H93.837C93.9722 25.0998 94.1018 25.0461 94.1974 24.9506C94.293 24.855 94.3467 24.7254 94.3467 24.5903V16.3794C94.3465 16.1536 94.3908 15.9299 94.4771 15.7213C94.5635 15.5126 94.6902 15.323 94.8499 15.1633C95.0096 15.0036 95.1993 14.877 95.408 14.7907C95.6168 14.7044 95.8405 14.6601 96.0664 14.6603H96.9462C97.1722 14.6601 97.396 14.7044 97.6049 14.7907C97.8137 14.877 98.0035 15.0036 98.1634 15.1632C98.3233 15.3229 98.4501 15.5124 98.5367 15.7211C98.6232 15.9298 98.6677 16.1535 98.6677 16.3794L98.6786 24.5921C98.6786 24.6589 98.6918 24.7251 98.7175 24.7868C98.7431 24.8485 98.7807 24.9046 98.828 24.9518C98.8754 24.9989 98.9316 25.0363 98.9934 25.0617C99.0553 25.0871 99.1215 25.1001 99.1884 25.0998H102.664C102.799 25.0998 102.929 25.0461 103.024 24.9506C103.12 24.855 103.174 24.7254 103.174 24.5903V16.3794C103.174 15.9235 103.355 15.4862 103.677 15.1639C104 14.8415 104.437 14.6603 104.893 14.6603H105.775C106.001 14.6601 106.225 14.7044 106.434 14.7907C106.642 14.877 106.832 15.0036 106.992 15.1633C107.151 15.323 107.278 15.5126 107.364 15.7213C107.451 15.9299 107.495 16.1536 107.495 16.3794L107.508 24.5921C107.508 24.7267 107.561 24.8559 107.656 24.9511C107.752 25.0463 107.881 25.0998 108.015 25.0998H111.493C111.56 25.0998 111.626 25.0866 111.688 25.061C111.749 25.0354 111.806 24.9978 111.853 24.9505C111.9 24.9031 111.937 24.8469 111.963 24.7851C111.988 24.7233 112.001 24.6571 112.001 24.5903V15.9533C112.01 15.2027 111.871 14.4576 111.591 13.7612C111.31 13.0648 110.895 12.4309 110.368 11.8961C109.841 11.3614 109.213 10.9364 108.52 10.6458C107.828 10.3552 107.085 10.2047 106.334 10.2031Z" fill="#520044"/>
<path d="M65.3038 4.98389L62.0748 1.75612C62.0057 1.68629 61.9173 1.63862 61.8209 1.61917C61.7245 1.59972 61.6246 1.60938 61.5337 1.64691C61.4429 1.68444 61.3653 1.74815 61.3108 1.82992C61.2563 1.9117 61.2273 2.00784 61.2277 2.1061V10.8972C61.2276 10.9499 61.2131 11.0016 61.1859 11.0467C61.1586 11.0918 61.1196 11.1287 61.0729 11.1533C61.0263 11.1779 60.9739 11.1893 60.9212 11.1864C60.8686 11.1835 60.8177 11.1662 60.7742 11.1366C59.9725 10.5927 59.0218 10.3107 58.0531 10.3297H56.0232C55.2703 10.3294 54.5247 10.4775 53.829 10.7653C53.1333 11.0532 52.5012 11.4752 51.9687 12.0074C51.4362 12.5395 51.0138 13.1713 50.7256 13.8666C50.4374 14.5619 50.2891 15.3072 50.2891 16.0599V17.788V19.3928C50.2891 20.1455 50.4374 20.8909 50.7255 21.5863C51.0137 22.2818 51.4361 22.9137 51.9686 23.4459C52.501 23.9782 53.1331 24.4004 53.8288 24.6885C54.5245 24.9766 55.2702 25.1248 56.0232 25.1248H57.1515C58.7388 25.1248 60.132 24.258 60.9066 22.7675C60.922 22.737 60.9471 22.7125 60.9781 22.6981C61.009 22.6836 61.0439 22.6799 61.0772 22.6877C61.1104 22.6954 61.1401 22.7141 61.1615 22.7407C61.1829 22.7674 61.1947 22.8004 61.195 22.8345V24.6189C61.195 24.6849 61.208 24.7502 61.2333 24.8111C61.2585 24.8721 61.2955 24.9274 61.3422 24.9741C61.3888 25.0207 61.4442 25.0577 61.5052 25.083C61.5662 25.1082 61.6315 25.1212 61.6975 25.1212H65.1859C65.3195 25.1207 65.4475 25.0674 65.5419 24.973C65.6364 24.8786 65.6897 24.7506 65.6902 24.6171V5.91414C65.6896 5.56516 65.5507 5.23063 65.3038 4.98389ZM54.7661 19.1281V18.497V16.321C54.7666 15.8652 54.9479 15.4282 55.2703 15.106C55.5927 14.7837 56.0298 14.6024 56.4858 14.6019H59.3755C59.8316 14.6019 60.269 14.783 60.5915 15.1054C60.9141 15.4278 61.0952 15.8651 61.0952 16.321V17.9675V19.1281C61.0955 19.354 61.0512 19.5777 60.9648 19.7865C60.8785 19.9952 60.7519 20.185 60.5922 20.3448C60.4325 20.5046 60.2428 20.6314 60.0341 20.7179C59.8253 20.8044 59.6015 20.8489 59.3755 20.8489H56.4858C56.0298 20.8484 55.5927 20.6672 55.2703 20.3449C54.9479 20.0226 54.7666 19.5856 54.7661 19.1299V19.1281Z" fill="#520044"/>
<path d="M29.4653 10.3336H25.9787C25.8455 10.3336 25.7177 10.3865 25.6234 10.4807C25.5292 10.5749 25.4763 10.7026 25.4763 10.8359V12.6184C25.4759 12.6525 25.4641 12.6856 25.4428 12.7122C25.4214 12.7388 25.3917 12.7575 25.3584 12.7653C25.3252 12.773 25.2903 12.7693 25.2593 12.7549C25.2284 12.7404 25.2032 12.716 25.1878 12.6855C24.4132 11.1985 23.011 10.3281 21.4328 10.3281H20.3026C18.7823 10.3281 17.3243 10.9318 16.2493 12.0065C15.1743 13.0811 14.5703 14.5386 14.5703 16.0583V19.3913C14.5701 20.1439 14.7182 20.8892 15.0061 21.5847C15.2941 22.2801 15.7163 22.912 16.2486 23.4443C16.781 23.9766 17.413 24.3988 18.1086 24.6869C18.8042 24.975 19.5497 25.1233 20.3026 25.1233H21.4328C23.0182 25.1233 24.4132 24.2565 25.1878 22.7659C25.2032 22.7354 25.2284 22.711 25.2593 22.6965C25.2903 22.6821 25.3252 22.6784 25.3584 22.6861C25.3917 22.6939 25.4214 22.7126 25.4428 22.7392C25.4641 22.7658 25.4759 22.7989 25.4763 22.833V24.6174C25.4763 24.7506 25.5292 24.8783 25.6234 24.9725C25.7177 25.0667 25.8455 25.1197 25.9787 25.1197H29.4653C29.5991 25.1197 29.7273 25.0665 29.8219 24.972C29.9165 24.8775 29.9696 24.7492 29.9696 24.6155V10.8341C29.9694 10.7681 29.9561 10.7028 29.9307 10.642C29.9052 10.5811 29.868 10.5259 29.8212 10.4794C29.7743 10.4329 29.7188 10.3961 29.6577 10.3711C29.5967 10.3461 29.5313 10.3333 29.4653 10.3336ZM25.3765 19.1338C25.3765 19.3598 25.332 19.5835 25.2454 19.7923C25.1589 20.0011 25.0321 20.1908 24.8723 20.3506C24.7124 20.5104 24.5226 20.6372 24.3138 20.7237C24.1049 20.8101 23.881 20.8546 23.655 20.8546H20.767C20.3105 20.8546 19.8726 20.6733 19.5497 20.3506C19.2269 20.0279 19.0455 19.5902 19.0455 19.1338V16.3176C19.046 15.8615 19.2276 15.4243 19.5504 15.102C19.8732 14.7796 20.3108 14.5986 20.767 14.5986H23.655C24.1112 14.5986 24.5488 14.7796 24.8716 15.102C25.1944 15.4243 25.376 15.8615 25.3765 16.3176V19.1338Z" fill="#520044"/>
<path d="M42.0472 10.3359H41.7243C40.1389 10.3359 38.7439 11.2009 37.9693 12.6933C37.9539 12.7238 37.9287 12.7482 37.8978 12.7627C37.8669 12.7772 37.832 12.7808 37.7987 12.7731C37.7654 12.7653 37.7357 12.7467 37.7144 12.72C37.693 12.6934 37.6812 12.6603 37.6809 12.6262V10.831C37.6789 10.699 37.6252 10.5731 37.5311 10.4805C37.4371 10.3879 37.3104 10.3359 37.1784 10.3359H33.6918C33.6255 10.3357 33.5598 10.3486 33.4985 10.3738C33.4372 10.3991 33.3816 10.4362 33.3347 10.4831C33.2878 10.5299 33.2507 10.5856 33.2254 10.6469C33.2001 10.7081 33.1873 10.7738 33.1875 10.8401V24.6052C33.1875 24.7399 33.241 24.869 33.3363 24.9642C33.4315 25.0595 33.5607 25.113 33.6954 25.113H37.1729C37.2396 25.113 37.3057 25.0998 37.3673 25.0743C37.4289 25.0488 37.4849 25.0114 37.5321 24.9642C37.5792 24.9171 37.6167 24.8611 37.6422 24.7995C37.6677 24.7379 37.6809 24.6719 37.6809 24.6052L37.6936 16.5013C37.6936 16.0454 37.8747 15.6082 38.1972 15.2858C38.5197 14.9634 38.9572 14.7823 39.4133 14.7823H41.5538C42.0098 14.7828 42.4469 14.964 42.7693 15.2863C43.0917 15.6086 43.273 16.0456 43.2735 16.5013L43.2844 24.5962C43.2849 24.731 43.3388 24.8601 43.4343 24.9553C43.5299 25.0505 43.6593 25.1039 43.7941 25.1039H47.2698C47.3367 25.1041 47.4029 25.0912 47.4647 25.0658C47.5266 25.0404 47.5828 25.003 47.6301 24.9558C47.6775 24.9087 47.7151 24.8526 47.7407 24.7909C47.7664 24.7292 47.7796 24.663 47.7796 24.5962V16.0589C47.7776 14.5404 47.1728 13.0848 46.098 12.0117C45.0232 10.9387 43.5663 10.3359 42.0472 10.3359Z" fill="#520044"/>
<path d="M2.94417 7.3125C2.16316 7.31298 1.4143 7.62346 0.862217 8.17568C0.31013 8.7279 -1.48066e-07 9.47667 0 10.2574L0 23.5221C4.83409e-05 23.992 0.186644 24.4426 0.518812 24.7751L3.58634 27.8397C3.66067 27.9138 3.75531 27.9643 3.85833 27.9848C3.96135 28.0052 4.06811 27.9947 4.16515 27.9545C4.26219 27.9144 4.34515 27.8464 4.40357 27.7591C4.46198 27.6719 4.49322 27.5693 4.49335 27.4643V20.6697C4.49335 20.5384 4.54553 20.4125 4.6384 20.3196C4.73127 20.2268 4.85724 20.1746 4.98858 20.1746H10.1586C10.2988 20.1746 10.4354 20.13 10.5486 20.0472C10.6618 19.9644 10.7456 19.8477 10.788 19.714L11.7622 16.6313C11.7887 16.548 11.7952 16.4595 11.7811 16.3732C11.767 16.2869 11.7328 16.2051 11.6812 16.1344C11.6296 16.0638 11.5621 16.0063 11.4842 15.9666C11.4062 15.9269 11.32 15.9061 11.2325 15.906H4.98858C4.92348 15.9062 4.85897 15.8936 4.79878 15.8688C4.73859 15.844 4.6839 15.8075 4.63787 15.7615C4.59183 15.7155 4.55536 15.6608 4.53056 15.6007C4.50576 15.5405 4.49311 15.476 4.49335 15.4109V12.0472C4.49335 11.9822 4.50617 11.918 4.53108 11.858C4.55599 11.798 4.5925 11.7436 4.63851 11.6978C4.68452 11.6519 4.73913 11.6156 4.7992 11.591C4.85928 11.5663 4.92363 11.5537 4.98858 11.5539H12.9231C13.0629 11.554 13.1991 11.5095 13.3119 11.427C13.4248 11.3446 13.5084 11.2283 13.5508 11.0952L14.5322 8.03784C14.5587 7.95449 14.5652 7.86606 14.5511 7.77973C14.5371 7.69341 14.5028 7.61161 14.4513 7.54096C14.3997 7.47032 14.3322 7.41282 14.2542 7.37313C14.1762 7.33343 14.09 7.31266 14.0025 7.3125H2.94417Z" fill="#520044"/>
</g>
<defs>
<clipPath id="clip0_2432_75506">
<rect width="112" height="28" fill="white"/>
</clipPath>
</defs>
</svg>
